# xmcd
#
# Track frame offsets:
#	150
#	10257
#	19801
#	36085
#	47167
#	58525
#	70692
#	82912
#	96443
#	112602
#	124633
#	136227
#	149421
#	160339
#	170496
#	188701
#	200483
#	209615
#	220035
#	234869
#	244252
#	264110
#
# Disc length: 3682 seconds
#
# Revision: 1
# Processed by: cddbd v1.5.2PL0 Copyright (c) Steve Scherf et al.
# Submitted via: audiograbber 1.83.01
#
DISCID=2a0e6016
DTITLE=Various Artist - Country Collection
DYEAR=1900
DGENRE=Country
TTITLE0=Faron Young - King Of The Road
TTITLE1=Dave Dudley - Six Days On The Road
TTITLE2=Johnny Cash - City Of New Orleans
TTITLE3=Red Sovine - Woman Behind The Man Behind The Wheel
TTITLE4=The John Davis Band - The Race Is On
TTITLE5=Johnny Dollar - Big Rig Rollin` Man
TTITLE6=Bob Willis - Take Me Back To Tulsa
TTITLE7=Red Simpson - I Got A Beaver On My Lap
TTITLE8=Mac Wiseman - 18 Wheels Hummin` Home
TTITLE9=Kenny Rogers - Me And Bobby McGee
TTITLE10=Don Williams - Follow Me Back To Louisville
TTITLE11=Jack Greene - California Turnaround
TTITLE12=Delaney`s All Stars - Walk On By
TTITLE13=Willie Nelson - On The Road Again
TTITLE14=Bobby Bare - The Jogger
TTITLE15=Johnny Dollar - Big Wheels Singing For Me
TTITLE16=Dave Dudley - Keep On Truckin`
TTITLE17=Red Sovine - Long Night
TTITLE18=The Buckaroos - Rollin` Back To Tennessee
TTITLE19=Hank Locklin - Flying South
TTITLE20=Pat O`Sullivan - Margaritaville
TTITLE21=Dave Dudley - There Ain`t No Easy Run
EXTD=
EXTT0=
EXTT1=
EXTT2=
EXTT3=
EXTT4=
EXTT5=
EXTT6=
EXTT7=
EXTT8=
EXTT9=
EXTT10=
EXTT11=
EXTT12=
EXTT13=
EXTT14=
EXTT15=
EXTT16=
EXTT17=
EXTT18=
EXTT19=
EXTT20=
EXTT21=
PLAYORDER=
